<?xml version="1.0" encoding="utf-8"?>
<!-- Generator: Adobe Illustrator 16.0.0, SVG Export Plug-In . SVG Version: 6.00 Build 0)  -->
<!DOCTYPE svg PUBLIC "-//W3C//DTD SVG 1.1//EN" "http://www.w3.org/Graphics/SVG/1.1/DTD/svg11.dtd">
<svg version="1.1" id="Layer_2" xmlns="http://www.w3.org/2000/svg" xmlns:xlink="http://www.w3.org/1999/xlink" x="0px" y="0px"
	 width="278.017px" height="39.306px" viewBox="0 0 278.017 39.306" enable-background="new 0 0 278.017 39.306"
	 xml:space="preserve">
<g>
	<g>
		<g>
			<path fill="#FFFFFF" d="M28.627,38.474h-9.368L9.047,27.668c-1.222-1.256-1.816-2.44-1.816-3.591
				c0-1.033,0.347-1.829,1.035-2.373c0.696-0.555,1.681-0.868,2.979-0.939c3.525-0.25,6.161-0.965,7.907-2.162
				c1.753-1.191,2.635-2.948,2.635-5.282c0-2.208-0.679-3.861-2.017-4.966c-1.338-1.117-3.23-1.651-5.694-1.651H6.69v31.771H0V0
				h14.234c2.036,0,3.933,0.289,5.7,0.861s3.302,1.398,4.599,2.512c1.31,1.109,2.333,2.489,3.081,4.118
				c0.752,1.646,1.127,3.539,1.127,5.674c0,1.294-0.203,2.608-0.593,3.957c-0.396,1.366-1.051,2.619-1.979,3.801
				c-0.925,1.174-2.146,2.224-3.671,3.14c-1.512,0.896-3.395,1.534-5.642,1.904L28.627,38.474z"/>
			<path fill="#FFFFFF" d="M51.43,38.474h-19.05V0h18.775v6.703H39.061v8.926h10.382v6.682H39.061v9.478H51.43V38.474z"/>
			<path fill="#FFFFFF" d="M79.895,36.546L61.049,11.779v26.695h-6.424V3.373c0-1.035,0.279-1.86,0.842-2.459
				C56.017,0.31,56.813,0,57.839,0c0.684,0,1.32,0.148,1.907,0.436c0.585,0.273,1.167,0.797,1.734,1.558l18.785,24.718V0h6.413
				v35.164c0,2.455-0.827,3.686-2.506,3.686c-0.827,0-1.545-0.178-2.164-0.551C81.379,37.916,80.674,37.328,79.895,36.546z"/>
			<path fill="#FFFFFF" d="M110.014,38.474H90.961V0h18.785v6.703H97.654v8.926h10.373v6.682H97.654v9.478h12.36V38.474z"/>
		</g>
		<g>
			<path fill="#FFFFFF" d="M142.979,37.324c-0.482,0.699-1.066,1.225-1.73,1.525c-0.654,0.297-1.356,0.457-2.114,0.457
				c-0.851,0-1.537-0.314-2.058-0.91c-0.513-0.617-0.776-1.418-0.776-2.412V12.55l-16.464,24.774
				c-0.5,0.699-1.079,1.225-1.745,1.525c-0.655,0.297-1.361,0.457-2.114,0.457c-0.846,0-1.53-0.314-2.046-0.91
				c-0.532-0.617-0.786-1.418-0.786-2.412V0.567h6.691v26L134.81,2.855c0.569-0.883,1.182-1.491,1.847-1.815
				c0.658-0.315,1.325-0.473,2.003-0.473c1.147,0,2.147,0.415,3.03,1.228c0.863,0.816,1.289,1.87,1.289,3.155v21.617l16.494-26
				h7.963L142.979,37.324z"/>
		</g>
		<path fill="#FFFFFF" d="M170.231,2.884c0.49-0.711,1.074-1.212,1.725-1.516c0.648-0.292,1.346-0.444,2.078-0.444
			c0.867,0,1.539,0.3,2.055,0.895c0.512,0.604,0.758,1.396,0.758,2.39v23.221l16.334-24.545c0.49-0.711,1.072-1.212,1.734-1.516
			c0.643-0.292,1.344-0.444,2.088-0.444c0.844,0,1.52,0.3,2.043,0.895c0.516,0.604,0.768,1.396,0.768,2.39v35.098h-6.633V13.534
			l-14.84,23.477c-0.57,0.896-1.178,1.502-1.826,1.809c-0.66,0.33-1.32,0.486-1.996,0.486c-1.125,0-2.121-0.422-2.992-1.238
			c-0.869-0.811-1.295-1.848-1.295-3.121V13.534l-16.338,25.772h-7.889L170.231,2.884z"/>
		<path fill="#FFFFFF" d="M233.638,0.914v10.019c0,4.939-1.039,8.878-3.141,11.794c-2.105,2.909-5.049,4.66-8.834,5.228v11.081
			h-6.633V27.891c-3.773-0.557-6.691-2.305-8.738-5.187c-2.053-2.899-3.074-6.832-3.074-11.771V0.914h6.629v10.019
			c0,1.981,0.139,3.633,0.443,4.983c0.309,1.34,0.768,2.429,1.404,3.264c0.641,0.834,1.457,1.415,2.459,1.771
			c1.023,0.363,2.227,0.526,3.65,0.526h1.26c1.379,0,2.584-0.182,3.574-0.558c1.016-0.366,1.848-0.96,2.506-1.768
			c0.641-0.818,1.117-1.896,1.434-3.235c0.289-1.351,0.438-3.002,0.438-4.983V0.914H233.638z"/>
		<path fill="#FFFFFF" d="M236.923,39.037V0.924h6.623v38.113H236.923z"/>
		<path fill="#FFFFFF" d="M247.899,39.037V0.924h10.906c2.844,0,5.424,0.47,7.77,1.375c2.359,0.92,4.393,2.203,6.078,3.851
			c1.697,1.644,3.01,3.606,3.939,5.886c0.947,2.276,1.424,4.799,1.424,7.552c0,2.76-0.494,5.324-1.443,7.688
			c-0.949,2.365-2.27,4.418-3.975,6.174c-1.697,1.742-3.713,3.119-6.072,4.105c-2.348,1.002-4.928,1.482-7.721,1.482H247.899z
			 M254.521,7.553v24.855h4.285c1.883,0,3.604-0.305,5.156-0.92c1.551-0.614,2.865-1.472,3.969-2.577
			c1.094-1.096,1.947-2.39,2.553-3.889c0.596-1.512,0.893-3.135,0.893-4.899c0-1.805-0.305-3.477-0.928-5.014
			c-0.611-1.541-1.475-2.87-2.59-3.983c-1.127-1.104-2.441-1.982-3.975-2.623c-1.535-0.637-3.23-0.95-5.078-0.95H254.521z"/>
	</g>
	<rect x="100.487" fill="#FFFFFF" width="9.259" height="6.703"/>
</g>
</svg>
